# xmcd CD database file
#
# Track frame offsets:
#	150
#	15866
#	34962
#	51912
#	69494
#	87948
#	108217
#	124993
#	142613
#	159537
#	175273
#	193315
#	211527
#	228718
#	246172
#	266135
#	283131
#	299927
#	320477
#
# Disc length: 4720 seconds
#
# Revision: 0
# Processed by: cddbd v1.5.2PL0 Copyright (c) Steve Scherf et al.
# Submitted via: CDex 1.70beta2
#
DISCID=1f126e13
DTITLE=YIRUMA - YIRUMA Live at HOAM Art Hall
DYEAR=2005
DGENRE=New Age
TTITLE0=MAY Be
TTITLE1=One Day I Will and Leave Behind
TTITLE2=Do You?
TTITLE3=River Flows In You
TTITLE4=Tears On Love
TTITLE5=Sometimes... Someone
TTITLE6=Chaconne
TTITLE7=Ywllow Room
TTITLE8=Indigo
TTITLE9=It's Your Day
TTITLE10=I
TTITLE11=Passing By
TTITLE12=Small Steps
TTITLE13=All Myself To You
TTITLE14=Kiss the Rain
TTITLE15=When the Love Falls
TTITLE16=Love Me
TTITLE17=Wait There
TTITLE18=잠시 and Autumn Leaves
EXTD=YEAR: 2005
EXTT0=
EXTT1=
EXTT2=
EXTT3=
EXTT4=
EXTT5=
EXTT6=
EXTT7=
EXTT8=
EXTT9=
EXTT10=
EXTT11=
EXTT12=
EXTT13=
EXTT14=
EXTT15=
EXTT16=
EXTT17=
EXTT18=
PLAYORDER=
